HIERARCHY
ROOT Hips
{
  OFFSET 90.7885 88.945 -76.2838
  CHANNELS 6 Xposition Yposition Zposition Zrotation Xrotation Yrotation
  JOINT LeftUpLeg
  {
    OFFSET 8.64259 1.95398 -2.38835
    CHANNELS 3 Zrotation Xrotation Yrotation
    JOINT LeftLeg
    {
      OFFSET 43.7702 0 0
      CHANNELS 3 Zrotation Xrotation Yrotation
      JOINT LeftFoot
      {
        OFFSET 40.6238 0 0
        CHANNELS 3 Zrotation Xrotation Yrotation
        JOINT LeftToeBase
        {
          OFFSET 12.7242 0 0
          CHANNELS 3 Zrotation Xrotation Yrotation
          End Site
          {
            OFFSET 0 0 0
          }
        }
      }
    }
  }
  JOINT RightUpLeg
  {
    OFFSET -8.2249 1.95398 -2.59336
    CHANNELS 3 Zrotation Xrotation Yrotation
    JOINT RightLeg
    {
      OFFSET 43.5653 0 0
      CHANNELS 3 Zrotation Xrotation Yrotation
      JOINT RightFoot
      {
        OFFSET 40.6238 0 0
        CHANNELS 3 Zrotation Xrotation Yrotation
        JOINT RightToeBase
        {
          OFFSET 12.7242 0 0
          CHANNELS 3 Zrotation Xrotation Yrotation
          End Site
          {
            OFFSET 0 0 0
          }
        }
      }
    }
  }
  JOINT Spine
  {
    OFFSET 0.165834 0.87714 6.61349
    CHANNELS 3 Zrotation Xrotation Yrotation
    JOINT Spine1
    {
      OFFSET 7.38963 1.71661e-005 0
      CHANNELS 3 Zrotation Xrotation Yrotation
      JOINT Spine2
      {
        OFFSET 11.9445 1.14441e-005 0
        CHANNELS 3 Zrotation Xrotation Yrotation
        JOINT Spine3
        {
          OFFSET 14.7254 4.19617e-005 0
          CHANNELS 3 Zrotation Xrotation Yrotation
          JOINT Spine4
          {
            OFFSET 10.9679 0 0
            CHANNELS 3 Zrotation Xrotation Yrotation
            JOINT RightShoulder
            {
              OFFSET 2.46616 -1.6653 3.69651
              CHANNELS 3 Zrotation Xrotation Yrotation
              JOINT RightArm
              {
                OFFSET 13.0012 0 0
                CHANNELS 3 Zrotation Xrotation Yrotation
                JOINT RightForeArm
                {
                  OFFSET 28.7848 1.52588e-005 0
                  CHANNELS 3 Zrotation Xrotation Yrotation
                  JOINT RightHand
                  {
                    OFFSET 26.5688 1.52588e-005 0
                    CHANNELS 3 Zrotation Xrotation Yrotation
                    End Site
                    {
                      OFFSET 0 0 0
                    }
                  }
                }
              }
            }
            JOINT LeftShoulder
            {
              OFFSET 2.38034 -1.29275 -3.7523
              CHANNELS 3 Zrotation Xrotation Yrotation
              JOINT LeftArm
              {
                OFFSET 16.3182 6.10352e-005 0
                CHANNELS 3 Zrotation Xrotation Yrotation
                JOINT LeftForeArm
                {
                  OFFSET 27.0901 0 0
                  CHANNELS 3 Zrotation Xrotation Yrotation
                  JOINT LeftHand
                  {
                    OFFSET 24.5451 1.52588e-005 0
                    CHANNELS 3 Zrotation Xrotation Yrotation
                    End Site
                    {
                      OFFSET 0 0 0
                    }
                  }
                }
              }
            }
            JOINT Neck
            {
              OFFSET 5.0226 -0.0266342 0
              CHANNELS 3 Zrotation Xrotation Yrotation
              JOINT Head
              {
                OFFSET 6.69363 2.86102e-005 0
                CHANNELS 3 Zrotation Xrotation Yrotation
                End Site
                {
                  OFFSET 0 0 0
                }
              }
            }
          }
        }
      }
    }
  }
}
MOTION
Frames:	17
Frame Time:	0.0416667
-29.6341 98.3323 -34.3017 84.0296 -43.1526 87.1703 -172.241 -33.7741 91.2004 -23.741 -5.05727 -2.32696 50.5899 -2.31966 0.160162 28.7102 3.02628 -4.41108 -178.077 46.2934 96.886 -35.4765 -12.103 -1.95481 74.9781 -8.60235 -2.60191 17.8341 -0.193877 2.49164 -3.55379 7.85289 -91.7427 11.0848 -7.88199 -2.7072 -0.564202 -7.99342 -2.35576 -23.2253 -6.70355 -4.95812 -3.21266 -6.70355 -4.95814 97.0529 -8.79307 -97.9953 66.6934 -22.4921 63.4903 -39.8582 -6.25924 -66.2751 -41.205 3.25611 -20.8831 -81.796 2.91075 81.0173 2.96627 4.7443 -35.3823 27.8541 -17.2885 -105.08 2.14055 -0.753757 -21.0825 41.7648 19.9284 -0.793932 -23.7825 18.2617 5.26835 
-23.1999 98.1576 -29.0218 84.9976 -44.6948 85.9536 -172.086 -33.1343 88.5281 -33.8306 -3.02509 -4.40898 52.3082 -2.01138 0.838301 31.2949 3.5594 -5.91749 -179.51 41.1129 96.3359 -24.8082 -14.5131 -1.26277 72.5643 -7.52301 -2.25435 17.9856 -0.259102 2.58973 -3.43373 7.85397 -91.6304 11.0926 -7.59099 -2.51102 -0.557908 -7.69408 -2.17277 -23.2124 -6.4849 -4.68306 -3.19974 -6.48492 -4.68308 97.7893 -12.669 -94.5169 62.301 -27.6133 60.6089 -44.4725 -8.56271 -68.1784 -34.8426 2.53082 -22.8282 -82.4991 -0.617846 80.2119 3.98096 8.92586 -33.0526 27.5139 -17.7419 -104.092 1.61769 -0.6615 -20.6321 40.468 20.8501 1.47254 -23.5089 18.1381 4.97883 
-17.0008 97.8509 -23.7112 85.9289 -45.8923 85.4031 -169.909 -30.8276 88.2968 -45.5724 3.18619 -5.86684 53.1733 -2.17526 2.88817 33.7816 3.4599 -6.53308 179.554 37.0986 96.0943 -19.0637 -12.6457 -0.865694 70.0523 -6.47824 -1.73462 19.2077 -0.261532 2.4046 -3.2776 7.8601 -91.5837 11.0847 -7.25856 -2.45064 -0.567659 -7.35931 -2.12732 -23.2106 -6.18609 -4.5246 -3.19796 -6.18609 -4.5246 97.0402 -15.5567 -95.7102 58.1203 -27.276 56.5609 -45.7337 -8.80416 -70.2041 -33.9416 2.08879 -22.1549 -83.392 -5.19674 79.4727 4.33079 14.2505 -30.6333 26.3804 -18.8467 -104.258 1.54744 -0.614743 -19.7037 39.1784 21.3711 3.39212 -23.5434 17.7419 5.21057 
-11.017 97.1409 -18.3747 86.6577 -47.6726 85.3353 -166.151 -27.3985 89.6007 -58.6139 8.31907 -6.54163 54.0905 -2.03788 4.1091 33.3731 4.23002 -7.61033 179.057 34.8103 96.4047 -19.2226 -10.2748 -0.763803 70.9343 -6.85774 -1.31197 17.932 0.738558 0.756144 -3.0517 7.89666 -91.634 11.0086 -6.83181 -2.59843 -0.646299 -6.93946 -2.29405 -23.2697 -5.73497 -4.53566 -3.25704 -5.73496 -4.53565 95.7878 -18.8264 -97.9801 51.5395 -25.7873 50.5129 -47.0077 -9.93168 -72.6598 -33.565 1.67068 -21.3599 -84.5646 -12.7626 79.0674 5.239 18.3092 -27.1184 27.8193 -20.3968 -104.28 3.6798 -0.840666 -18.4902 36.7636 22.72 8.13541 -20.9483 17.5407 2.81046 
-5.22464 96.1504 -13.0085 86.5101 -49.6113 84.7784 -161.518 -22.4382 91.4244 -72.7428 11.1275 -5.80593 55.7925 -1.4236 5.41179 29.4928 5.57829 -8.36375 178.582 33.7116 96.8016 -22.5731 -10.9339 -0.647081 71.3006 -6.80654 -1.80826 16.5179 1.89075 -1.04431 -2.72757 7.86344 -91.7185 11.0721 -6.22612 -2.81968 -0.5864 -6.34415 -2.54213 -23.1836 -5.09122 -4.56272 -3.17097 -5.09121 -4.56273 93.7602 -23.3164 -101.261 43.7389 -24.002 44.5369 -47.7473 -9.78748 -75.9848 -37.4514 1.56573 -19.5506 -85.9329 -21.5109 78.8253 6.17801 22.9746 -23.5285 30.4551 -22.0572 -103.18 3.17939 -0.81267 -19.1809 33.7521 23.4635 12.7409 -17.6691 16.9606 0.780905 
0.567024 94.9025 -7.62265 87.4066 -51.5792 85.7612 -156.194 -17.3262 94.2026 -86.9906 9.68241 -3.53261 57.3864 -0.713098 5.66474 29.6717 6.44513 -9.69234 177.915 30.5063 97.48 -24.4934 -14.0938 -0.275341 70.252 -6.09218 -2.35776 18.1442 0.265685 1.59538 -2.33227 7.97613 -91.7888 10.8458 -5.46981 -3.04699 -0.816611 -5.59853 -2.80286 -23.3857 -4.3019 -4.55053 -3.37309 -4.30189 -4.55052 91.3589 -27.0972 -105.105 35.8121 -20.4655 37.1916 -46.6433 -6.36572 -79.4104 -37.854 1.64497 -19.1511 -87.1774 -29.3136 78.5293 4.95313 26.0331 -18.478 28.5378 -21.8313 -102.846 4.34883 -0.810701 -16.5237 33.2739 23.2286 14.1686 -16.838 16.2265 0.540262 
6.28148 93.7837 -2.12564 88.4238 -52.8144 87.6874 -151.503 -10.4664 97.093 -100.64 5.59882 0.140018 59.5241 0.386444 4.26147 28.5489 6.33973 -9.14768 177.174 27.1981 98.3376 -26.4916 -16.2062 0.21202 64.11 -2.66387 -0.616305 25.0226 -0.974416 2.8931 -1.98244 8.05328 -91.8674 10.6918 -4.80784 -3.27306 -0.973831 -4.94715 -3.0581 -23.5206 -3.60287 -4.56618 -3.50798 -3.60286 -4.56617 89.2394 -30.4719 -108.069 28.3344 -17.347 28.3239 -44.861 -2.85899 -84.9425 -37.2889 1.45448 -17.8905 -88.2418 -36.3131 78.4218 1.81613 29.6536 -10.7252 29.1875 -22.1241 -101.773 3.43832 -0.640034 -15.3102 32.4829 22.5642 14.3258 -16.0081 15.5982 0.778859 
11.6516 92.947 3.43699 89.3584 -54.1291 89.6218 -148.015 -1.33911 98.6243 -112.752 4.79106 3.9017 59.969 0.918286 5.82029 27.6482 7.99667 -11.1453 175.933 27.448 100.063 -37.2268 -20.1687 1.07004 71.0259 -5.84873 -4.51994 -0.026176 1.20116 2.9339 -1.49967 8.11707 -91.9537 10.5685 -3.88454 -3.53442 -1.10101 -4.03624 -3.36008 -23.6225 -2.64391 -4.53728 -3.60984 -2.64391 -4.53728 89.07 -30.3518 -108.456 24.4655 -12.7594 16.7676 -45.7097 -0.0435294 -92.1813 -36.6471 0.520117 -15.0899 -88.0987 -40.7934 79.714 -4.74311 32.0849 -2.79051 30.8929 -21.9413 -99.8691 1.59116 -0.528827 -16.9551 30.8576 21.5273 15.5775 -14.5491 14.4406 -0.235308 
16.4137 91.6948 8.48359 88.0604 -55.8033 88.9489 -145.713 9.99547 96.6238 -124.491 6.35909 7.07402 60.512 0.530606 7.92586 25.5971 8.43803 -10.9946 178.012 27.7426 101.954 -46.4384 -17.6517 -0.613011 77.0848 -9.72517 -7.98706 9.84581 0.179495 2.98593 -0.900993 7.99262 -91.9617 10.8319 -2.69977 -3.64991 -0.841062 -2.85769 -3.52771 -23.3436 -1.47918 -4.29149 -3.33097 -1.47917 -4.29149 91.1343 -29.6688 -104.62 23.2183 -9.92985 1.82955 -45.8863 1.81983 -96.2681 -36.6649 -0.124297 -12.7504 -86.9111 -44.8075 82.4673 -12.225 33.302 6.96337 34.6096 -22.1988 -97.9688 1.70759 -0.549061 -17.1893 29.0356 20.0637 16.8643 -12.8531 12.8146 -0.540964 
20.6306 90.618 13.2221 86.3032 -58.1879 89.4636 -144.548 24.1155 94.1123 -134.408 10.1239 9.19877 60.0963 -0.28719 10.9331 24.5737 10.7165 -13.6158 179.908 25.6975 104.863 -50.0015 -15.6833 -1.35673 83.5916 -13.939 -9.37987 5.85531 0.730364 2.66829 -0.20903 7.96631 -92.0868 10.8988 -1.38077 -4.02075 -0.777489 -1.55626 -3.95623 -23.2628 -0.109776 -4.24945 -3.25015 -0.109765 -4.24945 91.7564 -30.1792 -103.201 21.4151 -3.89909 -12.9944 -45.665 3.3938 -99.1997 -35.5397 -0.354382 -12.2359 -85.4198 -46.5673 85.1166 -21.8673 29.828 19.1675 36.3024 -22.2659 -98.6165 1.26889 -0.512387 -17.554 30.5033 18.8743 16.9922 -13.5291 11.2995 -0.210403 
25.7246 90.6412 18.3404 84.8288 -61.9098 88.5612 -144.359 35.3915 90.496 -138.451 12.9095 9.92932 62.5771 0.81413 11.9312 22.4089 11.6938 -13.9823 -179.796 19.9305 104.245 -49.52 -19.991 -2.25454 88.8712 -16.9974 -9.71663 4.06792 1.04672 2.461 0.595945 8.00215 -91.9555 10.8588 0.283091 -3.91725 -0.818007 0.110546 -3.9259 -23.3108 1.44653 -3.65175 -3.29812 1.44652 -3.65175 90.7084 -29.0527 -105.697 23.9996 8.77272 -23.9154 -44.2421 1.7756 -105.336 -34.1551 -0.709759 -11.422 -83.7417 -46.8508 87.7893 -30.1221 23.7686 30.6788 37.2193 -22.8584 -100.83 -0.587004 -0.317337 -19.5382 32.8073 17.5998 17.6849 -14.3548 9.44216 -1.12356 
31.4461 90.2374 23.7798 83.7048 -64.2883 85.6504 -145.683 42.887 86.6455 -138.556 13.6896 9.70158 67.5013 3.39755 11.9026 23.8143 12.3835 -15.4764 -178.432 13.9697 100.801 -49.622 -20.9296 -4.81561 93.3699 -18.4795 -6.33245 8.60635 2.81515 -0.90936 1.35795 7.99872 -91.5383 10.8951 1.99251 -3.24764 -0.778545 1.84774 -3.33209 -23.3047 2.87616 -2.49919 -3.29199 2.87615 -2.4992 90.635 -25.4795 -107.274 33.3255 22.1906 -33.2516 -43.0914 -3.18641 -112.465 -36.9513 -0.942874 -10.8227 -82.3603 -44.8014 89.7682 -37.45 20.1672 39.5824 35.7008 -23.3666 -102.33 -1.45206 -0.226321 -20.8707 33.9973 15.2196 18.2101 -14.5844 6.71365 -1.60835 
37.5843 90.4044 29.3832 84.1051 -64.7069 83.19 -147.686 48.4489 82.2999 -135.185 12.395 8.95248 72.9477 6.54261 12.5631 25.3989 10.0606 -13.0929 -179.032 5.74065 95.5691 -45.4173 -19.801 -7.07166 96.739 -18.2308 -0.620961 12.3874 2.21436 -0.713386 2.07126 8.07874 -90.9641 10.7531 3.68007 -2.25654 -0.91491 3.57722 -2.41643 -23.4873 4.18785 -1.04483 -3.4747 4.18788 -1.04483 91.1307 -21.7575 -107.813 46.7716 36.2279 -42.8879 -41.7581 -7.172 -120.779 -39.9715 -1.81837 -8.43644 -81.8819 -41.6741 90.2621 -41.9417 19.6743 44.8589 33.7174 -23.9618 -102.82 0.533061 -0.488006 -19.9463 34.7114 11.8566 18.8582 -14.3504 3.15026 -2.81364 
43.9284 91.4845 35.6225 84.0279 -63.4621 80.4233 -150.62 53.0612 78.5078 -128.045 9.37951 7.90365 74.335 7.18422 12.0598 27.2984 9.2084 -12.7143 176.754 -3.0007 91.3385 -37.9091 -21.4735 -7.94258 92.1788 -15.0644 1.53149 21.209 0.122102 1.39675 2.65893 8.06807 -90.3458 10.7701 5.13528 -1.16353 -0.891433 5.07909 -1.38896 -23.5082 5.24689 0.437943 -3.49559 5.24687 0.437939 92.4664 -17.5191 -106.655 65.2486 47.856 -55.322 -40.1136 -12.6708 -129.397 -42.6339 -2.28857 -7.67522 -81.1025 -38.0285 91.285 -45.2384 21.7606 49.8606 31.3639 -25.4329 -103.942 1.24971 -0.584346 -19.8812 34.9177 7.58693 17.6681 -14.391 -0.425989 -3.03113 
50.2973 93.0815 42.3643 84.2073 -61.1747 78.4652 -155.511 56.4808 76.8119 -118.784 3.50176 6.42675 77.0245 8.07853 8.94509 26.3344 7.48706 -9.96607 171.574 -10.1415 84.3204 -30.0931 -27.4835 -7.53284 79.5989 -10.6798 -5.76778 29.4276 -2.35562 5.41883 3.10329 7.96662 -89.8464 10.9639 6.24941 -0.288301 -0.692079 6.23065 -0.564155 -23.3431 6.04605 1.61032 -3.33044 6.04603 1.61031 93.961 -12.2335 -105.357 83.3971 57.3251 -67.3499 -38.1065 -18.6869 -136.038 -46.7759 -2.29869 -8.1607 -80.8729 -33.2088 91.2837 -51.1725 24.55 55.6195 31.5024 -27.994 -103.952 0.657287 -0.538419 -21.2123 34.2348 3.72536 16.9041 -15.5558 -3.50854 -4.12437 
56.6909 94.8319 49.1206 84.5203 -59.0531 76.1119 -158.801 58.0229 74.2244 -108.324 -1.23171 4.77536 79.9203 9.16601 7.30036 27.0278 5.99726 -8.14642 167.488 -15.6655 79.8072 -24.3723 -27.853 -6.99905 68.4276 -4.731 -5.02557 24.7704 -1.69695 4.56095 3.52958 7.927 -89.3454 11.0182 7.32972 0.601248 -0.631998 7.34902 0.276298 -23.3152 6.8086 2.78639 -3.30254 6.80858 2.78637 95.2959 -5.9846 -104.907 97.1165 64.8525 -76.6937 -39.5209 -19.5404 -139.943 -50.2035 -3.9503 -5.21178 -80.9563 -28.3676 90.6847 -56.42 25.9998 60.9507 32.8405 -30.8277 -104.15 -0.159523 -0.443931 -22.4896 32.8666 0.101556 17.463 -17.3613 -6.52757 -6.93553 
62.7151 96.2363 55.6809 83.2221 -57.1151 72.8734 -161.975 60.0619 72.5796 -97.729 -3.39595 3.06571 82.4151 9.88937 5.14229 26.0198 6.06998 -7.92325 164.736 -19.2851 76.5158 -21.1942 -26.0765 -6.5461 62.6004 -1.75835 -2.4228 12.7818 -0.615488 3.90796 3.91936 7.85626 -88.9392 11.1347 8.29365 1.30487 -0.509898 8.343 0.936046 -23.2232 7.51614 3.75018 -3.21055 7.51615 3.75018 96.3559 -0.0118037 -105.139 111.131 72.2704 -88.5322 -36.619 -24.799 -140.776 -47.5993 -2.04663 -9.56289 -81.5902 -24.3731 88.8854 -60.8012 25.1391 65.6476 33.1684 -33.089 -105.227 -1.15593 -0.298805 -23.8001 30.5578 -3.25812 18.1226 -17.7997 -9.15359 -10.2193 
